<?xml version="1.0" encoding="UTF-8"?>
<svg xmlns="http://www.w3.org/2000/svg" xmlns:xlink="http://www.w3.org/1999/xlink" viewBox="0 0 48 48" width="48px" height="48px">
<g id="surface12121310">
<path style=" stroke:none;fill-rule:nonzero;fill:rgb(0.784314%,53.333336%,81.960785%);fill-opacity:1;" d="M 44.699219 38.949219 C 44.699219 42.125 42.125 44.699219 38.949219 44.699219 L 9.050781 44.699219 C 5.875 44.699219 3.300781 42.125 3.300781 38.949219 L 3.300781 9.050781 C 3.300781 5.875 5.875 3.300781 9.050781 3.300781 L 38.949219 3.300781 C 42.125 3.300781 44.699219 5.875 44.699219 9.050781 Z M 44.699219 38.949219 "/>
<path style=" stroke:none;fill-rule:nonzero;fill:rgb(100%,100%,100%);fill-opacity:1;" d="M 10.199219 18.25 L 15.949219 18.25 L 15.949219 37.800781 L 10.199219 37.800781 Z M 13.058594 15.949219 L 13.027344 15.949219 C 11.308594 15.949219 10.199219 14.671875 10.199219 13.074219 C 10.199219 11.441406 11.34375 10.199219 13.089844 10.199219 C 14.839844 10.199219 15.917969 11.441406 15.949219 13.074219 C 15.949219 14.671875 14.839844 15.949219 13.058594 15.949219 Z M 37.800781 37.800781 L 32.050781 37.800781 L 32.050781 27.335938 C 32.050781 24.808594 30.640625 23.082031 28.378906 23.082031 C 26.652344 23.082031 25.71875 24.246094 25.265625 25.371094 C 25.101562 25.773438 25.148438 26.886719 25.148438 27.449219 L 25.148438 37.800781 L 19.398438 37.800781 L 19.398438 18.25 L 25.148438 18.25 L 25.148438 21.257812 C 25.980469 19.976562 27.277344 18.25 30.597656 18.25 C 34.714844 18.25 37.800781 20.835938 37.800781 26.613281 Z M 37.800781 37.800781 "/>
</g>
</svg>
