<svg version="1.0" xmlns="http://www.w3.org/2000/svg"
 width="64.000000pt" height="24.000000pt" viewBox="0 0 64.000000 24.000000">

<g transform="translate(0.000000,24.000000) scale(0.100000,-0.100000)"
fill="#000000" stroke="none">
<path d="M0 120 l0 -120 30 0 c28 0 30 2 30 40 0 37 2 40 29 40 34 0 43 10 65
75 16 49 16 50 -5 68 -15 12 -39 17 -85 17 l-64 0 0 -120z m115 40 c0 -20 -6
-26 -27 -28 -25 -3 -28 0 -28 28 0 28 3 31 28 28 21 -2 27 -8 27 -28z"/>
<path fill="#5a0fc8" d="M259 163 l-26 -78 -18 35 -19 35 -14 -47 c-13 -39 -13 -52 -2 -78 11
-28 17 -31 49 -28 34 3 36 5 53 62 10 33 20 61 22 63 2 3 14 -25 26 -61 21
-63 23 -66 53 -66 30 0 34 4 58 68 15 37 36 91 48 120 l21 53 -32 -3 c-29 -3
-35 -9 -64 -78 -20 -46 -35 -69 -38 -60 -3 8 -14 42 -24 75 -15 51 -22 60 -43
63 -23 3 -27 -3 -50 -75z"/>
<path d="M531 192 c-9 -27 -10 -44 -2 -65 14 -37 15 -35 -16 -39 -20 -2 -29
-9 -31 -25 -3 -21 1 -23 37 -23 31 0 41 -4 46 -20 5 -15 15 -20 40 -20 l34 0
-26 68 c-14 37 -32 86 -40 109 -20 57 -28 60 -42 15z"/>
</g>
</svg>
